<mxfile host="app.diagrams.net" agent="Mozilla/5.0 (X11; Linux x86_64) AppleWebKit/537.36 (KHTML, like Gecko) Chrome/126.0.0.0 Safari/537.36" version="24.7.17">
  <diagram name="Página-1" id="s9LVnigCduanGAcH4XR8">
    <mxGraphModel dx="1588" dy="1448" grid="1" gridSize="10" guides="1" tooltips="1" connect="1" arrows="1" fold="1" page="1" pageScale="1" pageWidth="827" pageHeight="1169" math="0" shadow="0">
      <root>
        <mxCell id="0" />
        <mxCell id="1" parent="0" />
        <mxCell id="u_9GHQemhfMc5QaiCJXe-1" value="ACTOR" style="whiteSpace=wrap;html=1;" vertex="1" parent="1">
          <mxGeometry x="159" y="90" width="120" height="60" as="geometry" />
        </mxCell>
        <mxCell id="u_9GHQemhfMc5QaiCJXe-3" value="PERSONAJE" style="whiteSpace=wrap;html=1;" vertex="1" parent="1">
          <mxGeometry x="569" y="110" width="120" height="60" as="geometry" />
        </mxCell>
        <mxCell id="u_9GHQemhfMc5QaiCJXe-4" value="PELICULA" style="whiteSpace=wrap;html=1;" vertex="1" parent="1">
          <mxGeometry x="559" y="350" width="120" height="60" as="geometry" />
        </mxCell>
        <mxCell id="u_9GHQemhfMc5QaiCJXe-5" value="CAPITULO" style="whiteSpace=wrap;html=1;" vertex="1" parent="1">
          <mxGeometry x="159" y="330" width="120" height="60" as="geometry" />
        </mxCell>
        <mxCell id="u_9GHQemhfMc5QaiCJXe-6" value="PLANETAS" style="whiteSpace=wrap;html=1;" vertex="1" parent="1">
          <mxGeometry x="59" y="565" width="120" height="60" as="geometry" />
        </mxCell>
        <mxCell id="u_9GHQemhfMc5QaiCJXe-7" value="NAVE" style="whiteSpace=wrap;html=1;" vertex="1" parent="1">
          <mxGeometry x="244" y="570" width="120" height="60" as="geometry" />
        </mxCell>
        <mxCell id="u_9GHQemhfMc5QaiCJXe-8" value="" style="endArrow=none;html=1;rounded=0;entryX=0;entryY=0.5;entryDx=0;entryDy=0;exitX=1;exitY=0.5;exitDx=0;exitDy=0;" edge="1" parent="1" source="u_9GHQemhfMc5QaiCJXe-1" target="u_9GHQemhfMc5QaiCJXe-3">
          <mxGeometry width="50" height="50" relative="1" as="geometry">
            <mxPoint x="419" y="380" as="sourcePoint" />
            <mxPoint x="469" y="330" as="targetPoint" />
          </mxGeometry>
        </mxCell>
        <mxCell id="u_9GHQemhfMc5QaiCJXe-9" value="" style="rhombus;whiteSpace=wrap;html=1;" vertex="1" parent="1">
          <mxGeometry x="403" y="110" width="50" height="50" as="geometry" />
        </mxCell>
        <mxCell id="u_9GHQemhfMc5QaiCJXe-10" value="1:1" style="text;html=1;align=center;verticalAlign=middle;resizable=0;points=[];autosize=1;strokeColor=none;fillColor=none;" vertex="1" parent="1">
          <mxGeometry x="408" y="80" width="40" height="30" as="geometry" />
        </mxCell>
        <mxCell id="u_9GHQemhfMc5QaiCJXe-11" value="fechanaci&lt;div&gt;nomyape&lt;/div&gt;&lt;div&gt;cod_actor&lt;/div&gt;" style="text;html=1;align=center;verticalAlign=middle;resizable=0;points=[];autosize=1;strokeColor=none;fillColor=none;" vertex="1" parent="1">
          <mxGeometry x="79" y="105" width="80" height="60" as="geometry" />
        </mxCell>
        <mxCell id="u_9GHQemhfMc5QaiCJXe-12" value="Nombre&lt;div&gt;raza&lt;/div&gt;&lt;div&gt;graduacionMilitar&lt;/div&gt;&lt;div&gt;&lt;br&gt;&lt;/div&gt;" style="text;html=1;align=center;verticalAlign=middle;resizable=0;points=[];autosize=1;strokeColor=none;fillColor=none;" vertex="1" parent="1">
          <mxGeometry x="559" y="50" width="110" height="70" as="geometry" />
        </mxCell>
        <mxCell id="u_9GHQemhfMc5QaiCJXe-13" value="Año&lt;div&gt;TituloPeli&lt;/div&gt;&lt;div&gt;Director&lt;/div&gt;" style="text;html=1;align=center;verticalAlign=middle;resizable=0;points=[];autosize=1;strokeColor=none;fillColor=none;" vertex="1" parent="1">
          <mxGeometry x="559" y="410" width="70" height="60" as="geometry" />
        </mxCell>
        <mxCell id="u_9GHQemhfMc5QaiCJXe-14" value="Temporada&lt;div&gt;titulocap&lt;/div&gt;&lt;div&gt;fechagrab&lt;/div&gt;&lt;div&gt;fechaemision&lt;/div&gt;" style="text;html=1;align=center;verticalAlign=middle;resizable=0;points=[];autosize=1;strokeColor=none;fillColor=none;" vertex="1" parent="1">
          <mxGeometry x="59" y="330" width="90" height="70" as="geometry" />
        </mxCell>
        <mxCell id="u_9GHQemhfMc5QaiCJXe-15" value="(1,1)" style="text;html=1;align=center;verticalAlign=middle;resizable=0;points=[];autosize=1;strokeColor=none;fillColor=none;" vertex="1" parent="1">
          <mxGeometry x="279" y="90" width="50" height="30" as="geometry" />
        </mxCell>
        <mxCell id="u_9GHQemhfMc5QaiCJXe-16" value="(1,1)" style="text;html=1;align=center;verticalAlign=middle;resizable=0;points=[];autosize=1;strokeColor=none;fillColor=none;" vertex="1" parent="1">
          <mxGeometry x="529" y="100" width="50" height="30" as="geometry" />
        </mxCell>
        <mxCell id="u_9GHQemhfMc5QaiCJXe-17" value="" style="endArrow=none;html=1;rounded=0;entryX=0.5;entryY=1;entryDx=0;entryDy=0;exitX=0.5;exitY=0;exitDx=0;exitDy=0;" edge="1" parent="1" source="u_9GHQemhfMc5QaiCJXe-4" target="u_9GHQemhfMc5QaiCJXe-3">
          <mxGeometry width="50" height="50" relative="1" as="geometry">
            <mxPoint x="399" y="380" as="sourcePoint" />
            <mxPoint x="449" y="330" as="targetPoint" />
          </mxGeometry>
        </mxCell>
        <mxCell id="u_9GHQemhfMc5QaiCJXe-18" value="" style="rhombus;whiteSpace=wrap;html=1;" vertex="1" parent="1">
          <mxGeometry x="599" y="230" width="50" height="50" as="geometry" />
        </mxCell>
        <mxCell id="u_9GHQemhfMc5QaiCJXe-19" value="M&lt;div&gt;. .&lt;/div&gt;&lt;div&gt;N&lt;/div&gt;" style="text;html=1;align=center;verticalAlign=middle;resizable=0;points=[];autosize=1;strokeColor=none;fillColor=none;" vertex="1" parent="1">
          <mxGeometry x="569" y="220" width="30" height="60" as="geometry" />
        </mxCell>
        <mxCell id="u_9GHQemhfMc5QaiCJXe-20" value="Protagonista(si, no)" style="text;html=1;align=center;verticalAlign=middle;resizable=0;points=[];autosize=1;strokeColor=none;fillColor=none;" vertex="1" parent="1">
          <mxGeometry x="649" y="250" width="130" height="30" as="geometry" />
        </mxCell>
        <mxCell id="u_9GHQemhfMc5QaiCJXe-21" value="(1,n)" style="text;html=1;align=center;verticalAlign=middle;resizable=0;points=[];autosize=1;strokeColor=none;fillColor=none;" vertex="1" parent="1">
          <mxGeometry x="574" y="320" width="50" height="30" as="geometry" />
        </mxCell>
        <mxCell id="u_9GHQemhfMc5QaiCJXe-22" value="(1,n)" style="text;html=1;align=center;verticalAlign=middle;resizable=0;points=[];autosize=1;strokeColor=none;fillColor=none;" vertex="1" parent="1">
          <mxGeometry x="574" y="168" width="50" height="30" as="geometry" />
        </mxCell>
        <mxCell id="u_9GHQemhfMc5QaiCJXe-23" value="" style="endArrow=none;html=1;rounded=0;entryX=0.917;entryY=0.983;entryDx=0;entryDy=0;entryPerimeter=0;" edge="1" parent="1" target="u_9GHQemhfMc5QaiCJXe-3">
          <mxGeometry width="50" height="50" relative="1" as="geometry">
            <mxPoint x="679" y="200" as="sourcePoint" />
            <mxPoint x="449" y="330" as="targetPoint" />
          </mxGeometry>
        </mxCell>
        <mxCell id="u_9GHQemhfMc5QaiCJXe-24" value="" style="endArrow=none;html=1;rounded=0;" edge="1" parent="1">
          <mxGeometry width="50" height="50" relative="1" as="geometry">
            <mxPoint x="749" y="200" as="sourcePoint" />
            <mxPoint x="679" y="200" as="targetPoint" />
          </mxGeometry>
        </mxCell>
        <mxCell id="u_9GHQemhfMc5QaiCJXe-25" value="Depende Militarmente" style="rhombus;whiteSpace=wrap;html=1;" vertex="1" parent="1">
          <mxGeometry x="729" y="160" width="40" height="40" as="geometry" />
        </mxCell>
        <mxCell id="u_9GHQemhfMc5QaiCJXe-26" value="" style="endArrow=none;html=1;rounded=0;entryX=0.5;entryY=0;entryDx=0;entryDy=0;" edge="1" parent="1" target="u_9GHQemhfMc5QaiCJXe-25">
          <mxGeometry width="50" height="50" relative="1" as="geometry">
            <mxPoint x="749" y="120" as="sourcePoint" />
            <mxPoint x="449" y="330" as="targetPoint" />
          </mxGeometry>
        </mxCell>
        <mxCell id="u_9GHQemhfMc5QaiCJXe-27" value="" style="endArrow=none;html=1;rounded=0;exitX=1.008;exitY=0.133;exitDx=0;exitDy=0;exitPerimeter=0;" edge="1" parent="1" source="u_9GHQemhfMc5QaiCJXe-3">
          <mxGeometry width="50" height="50" relative="1" as="geometry">
            <mxPoint x="399" y="380" as="sourcePoint" />
            <mxPoint x="749" y="120" as="targetPoint" />
          </mxGeometry>
        </mxCell>
        <mxCell id="u_9GHQemhfMc5QaiCJXe-28" value="(0,1)" style="text;html=1;align=center;verticalAlign=middle;resizable=0;points=[];autosize=1;strokeColor=none;fillColor=none;" vertex="1" parent="1">
          <mxGeometry x="674" y="88" width="50" height="30" as="geometry" />
        </mxCell>
        <mxCell id="u_9GHQemhfMc5QaiCJXe-29" value="(0,n)" style="text;html=1;align=center;verticalAlign=middle;resizable=0;points=[];autosize=1;strokeColor=none;fillColor=none;" vertex="1" parent="1">
          <mxGeometry x="664" y="158" width="50" height="30" as="geometry" />
        </mxCell>
        <mxCell id="u_9GHQemhfMc5QaiCJXe-31" value="1:N" style="text;html=1;align=center;verticalAlign=middle;resizable=0;points=[];autosize=1;strokeColor=none;fillColor=none;" vertex="1" parent="1">
          <mxGeometry x="769" y="165" width="40" height="30" as="geometry" />
        </mxCell>
        <mxCell id="u_9GHQemhfMc5QaiCJXe-32" value="" style="endArrow=none;html=1;rounded=0;entryX=0;entryY=1;entryDx=0;entryDy=0;exitX=1;exitY=0;exitDx=0;exitDy=0;" edge="1" parent="1" source="u_9GHQemhfMc5QaiCJXe-34" target="u_9GHQemhfMc5QaiCJXe-3">
          <mxGeometry width="50" height="50" relative="1" as="geometry">
            <mxPoint x="399" y="380" as="sourcePoint" />
            <mxPoint x="449" y="330" as="targetPoint" />
          </mxGeometry>
        </mxCell>
        <mxCell id="u_9GHQemhfMc5QaiCJXe-35" value="" style="endArrow=none;html=1;rounded=0;entryX=0;entryY=1;entryDx=0;entryDy=0;exitX=1;exitY=0;exitDx=0;exitDy=0;" edge="1" parent="1" source="u_9GHQemhfMc5QaiCJXe-5" target="u_9GHQemhfMc5QaiCJXe-34">
          <mxGeometry width="50" height="50" relative="1" as="geometry">
            <mxPoint x="279" y="330" as="sourcePoint" />
            <mxPoint x="569" y="170" as="targetPoint" />
          </mxGeometry>
        </mxCell>
        <mxCell id="u_9GHQemhfMc5QaiCJXe-34" value="" style="rhombus;whiteSpace=wrap;html=1;" vertex="1" parent="1">
          <mxGeometry x="403" y="235" width="40" height="40" as="geometry" />
        </mxCell>
        <mxCell id="u_9GHQemhfMc5QaiCJXe-36" value="N:M" style="text;html=1;align=center;verticalAlign=middle;resizable=0;points=[];autosize=1;strokeColor=none;fillColor=none;" vertex="1" parent="1">
          <mxGeometry x="394" y="208" width="50" height="30" as="geometry" />
        </mxCell>
        <mxCell id="u_9GHQemhfMc5QaiCJXe-37" value="(1,n)" style="text;html=1;align=center;verticalAlign=middle;resizable=0;points=[];autosize=1;strokeColor=none;fillColor=none;" vertex="1" parent="1">
          <mxGeometry x="264" y="298" width="50" height="30" as="geometry" />
        </mxCell>
        <mxCell id="u_9GHQemhfMc5QaiCJXe-38" value="(1,n)" style="text;html=1;align=center;verticalAlign=middle;resizable=0;points=[];autosize=1;strokeColor=none;fillColor=none;" vertex="1" parent="1">
          <mxGeometry x="524" y="158" width="50" height="30" as="geometry" />
        </mxCell>
        <mxCell id="u_9GHQemhfMc5QaiCJXe-39" value="" style="endArrow=none;html=1;rounded=0;entryX=0.5;entryY=1;entryDx=0;entryDy=0;" edge="1" parent="1" target="u_9GHQemhfMc5QaiCJXe-5">
          <mxGeometry width="50" height="50" relative="1" as="geometry">
            <mxPoint x="219" y="420" as="sourcePoint" />
            <mxPoint x="449" y="330" as="targetPoint" />
          </mxGeometry>
        </mxCell>
        <mxCell id="u_9GHQemhfMc5QaiCJXe-40" value="" style="rhombus;whiteSpace=wrap;html=1;" vertex="1" parent="1">
          <mxGeometry x="199" y="410" width="40" height="40" as="geometry" />
        </mxCell>
        <mxCell id="u_9GHQemhfMc5QaiCJXe-41" value="" style="endArrow=none;html=1;rounded=0;exitX=1;exitY=0.5;exitDx=0;exitDy=0;entryX=0.5;entryY=0;entryDx=0;entryDy=0;" edge="1" parent="1" source="u_9GHQemhfMc5QaiCJXe-40" target="u_9GHQemhfMc5QaiCJXe-7">
          <mxGeometry width="50" height="50" relative="1" as="geometry">
            <mxPoint x="399" y="380" as="sourcePoint" />
            <mxPoint x="449" y="330" as="targetPoint" />
          </mxGeometry>
        </mxCell>
        <mxCell id="u_9GHQemhfMc5QaiCJXe-42" value="" style="endArrow=none;html=1;rounded=0;exitX=0;exitY=0.5;exitDx=0;exitDy=0;entryX=0.75;entryY=0;entryDx=0;entryDy=0;" edge="1" parent="1" source="u_9GHQemhfMc5QaiCJXe-40" target="u_9GHQemhfMc5QaiCJXe-6">
          <mxGeometry width="50" height="50" relative="1" as="geometry">
            <mxPoint x="399" y="380" as="sourcePoint" />
            <mxPoint x="439" y="340" as="targetPoint" />
          </mxGeometry>
        </mxCell>
        <mxCell id="u_9GHQemhfMc5QaiCJXe-43" value="(1,1)" style="text;html=1;align=center;verticalAlign=middle;resizable=0;points=[];autosize=1;strokeColor=none;fillColor=none;" vertex="1" parent="1">
          <mxGeometry x="169" y="390" width="50" height="30" as="geometry" />
        </mxCell>
        <mxCell id="u_9GHQemhfMc5QaiCJXe-44" value="(1,n)" style="text;html=1;align=center;verticalAlign=middle;resizable=0;points=[];autosize=1;strokeColor=none;fillColor=none;" vertex="1" parent="1">
          <mxGeometry x="114" y="528" width="50" height="30" as="geometry" />
        </mxCell>
        <mxCell id="u_9GHQemhfMc5QaiCJXe-45" value="(1,n)" style="text;html=1;align=center;verticalAlign=middle;resizable=0;points=[];autosize=1;strokeColor=none;fillColor=none;" vertex="1" parent="1">
          <mxGeometry x="284" y="538" width="50" height="30" as="geometry" />
        </mxCell>
        <mxCell id="u_9GHQemhfMc5QaiCJXe-47" value="codplaneta&lt;div&gt;nombreplaneta&lt;/div&gt;&lt;div&gt;galaxia&lt;/div&gt;" style="text;html=1;align=center;verticalAlign=middle;resizable=0;points=[];autosize=1;strokeColor=none;fillColor=none;" vertex="1" parent="1">
          <mxGeometry x="19" y="613" width="100" height="60" as="geometry" />
        </mxCell>
        <mxCell id="u_9GHQemhfMc5QaiCJXe-48" value="nombre&lt;div&gt;codnave&lt;/div&gt;&lt;div&gt;nºtripulantes&lt;/div&gt;" style="text;html=1;align=center;verticalAlign=middle;resizable=0;points=[];autosize=1;strokeColor=none;fillColor=none;" vertex="1" parent="1">
          <mxGeometry x="234" y="623" width="90" height="60" as="geometry" />
        </mxCell>
        <mxCell id="u_9GHQemhfMc5QaiCJXe-49" value="ACTORES(&lt;u&gt;cod_actor&lt;/u&gt;,nombre,apellido,fechanaci,nacionalidad)&lt;div&gt;&lt;br&gt;&lt;div style=&quot;text-align: left;&quot;&gt;PERSONAJES(&lt;u&gt;nombre,raza&lt;/u&gt;,graduacionmilitar,,&amp;nbsp; cod_actor(pk), cod_per_sup(fk))&lt;/div&gt;&lt;/div&gt;&lt;div style=&quot;text-align: left;&quot;&gt;&lt;br&gt;&lt;/div&gt;&lt;div style=&quot;text-align: left;&quot;&gt;PELICULAS (&lt;u&gt;cod_pelicula&lt;/u&gt;, titulo, director, año)&lt;/div&gt;&lt;div style=&quot;text-align: left;&quot;&gt;&lt;br&gt;&lt;/div&gt;&lt;div style=&quot;text-align: left;&quot;&gt;Personajes-Peliculas( &lt;u&gt;cod_personaje, cod_pelicula&lt;/u&gt;, protagonista)&lt;/div&gt;&lt;div style=&quot;text-align: left;&quot;&gt;&lt;br&gt;&lt;/div&gt;&lt;div style=&quot;text-align: left;&quot;&gt;TEMPORADAS (&lt;u&gt;Cod_temporada&lt;/u&gt;, descripcion)&lt;/div&gt;&lt;div style=&quot;text-align: left;&quot;&gt;&lt;br&gt;&lt;/div&gt;&lt;div style=&quot;text-align: left;&quot;&gt;CAPITULOS(&lt;u&gt;cod-temporada(fk), orden)&lt;/u&gt;&lt;/div&gt;&lt;div style=&quot;text-align: left;&quot;&gt;&lt;u&gt;&lt;br&gt;&lt;/u&gt;&lt;/div&gt;&lt;div style=&quot;text-align: left;&quot;&gt;CAPITULOS-PERSONAJES(&lt;u&gt;cod_temporada(fk), orden(fk), cod_personajes(fk)&lt;/u&gt;)&lt;/div&gt;&lt;div style=&quot;text-align: left;&quot;&gt;&lt;br&gt;&lt;/div&gt;&lt;div style=&quot;text-align: left;&quot;&gt;PLANETAS(&lt;u&gt;cod_planeta&lt;/u&gt;, nombre, galaxia)&lt;/div&gt;&lt;div style=&quot;text-align: left;&quot;&gt;&lt;br&gt;&lt;/div&gt;&lt;div style=&quot;text-align: left;&quot;&gt;NAVES(&lt;u&gt;cod_nombre&lt;/u&gt;, nombre, num_tripulantes)&lt;/div&gt;&lt;div style=&quot;text-align: left;&quot;&gt;&lt;br&gt;&lt;/div&gt;&lt;div style=&quot;text-align: left;&quot;&gt;VISITAS(&lt;u&gt;cod_planeta(fk), cod_nombre(fk), cod_temporada(fk),orden(fk)&lt;/u&gt;,problemaresuelto)&lt;/div&gt;" style="text;html=1;align=center;verticalAlign=middle;resizable=0;points=[];autosize=1;strokeColor=none;fillColor=none;" vertex="1" parent="1">
          <mxGeometry x="100" y="740" width="500" height="290" as="geometry" />
        </mxCell>
      </root>
    </mxGraphModel>
  </diagram>
</mxfile>
